<svg id="图层_1" data-name="图层 1" xmlns="http://www.w3.org/2000/svg" viewBox="0 0 2000 2000"><path d="M738,1370c-187.84,6.1-374.36.83-562.3,3.25V1316c18-1.52,35.53-2.61,52.92-4.58,14.73-1.65,29.52-3.5,44-6.7,34-7.54,55.26-31.78,59.1-66.44a239.08,239.08,0,0,0,1.54-25.92q.12-409.3-.15-818.62c0-14.08-2.15-28.34-4.93-42.19-4.22-21-17.24-35.77-36.09-45.71C266,292,237.8,285.45,208.93,281.2c-8.8-1.29-17.64-2.34-26.69-3.52V220h10q245,.09,490.06.2c115.38.15,224.39,26.85,325.6,82.26C1134.25,371.65,1217,476.61,1258,614.57c1.49,5,2.89,10.06,4.22,14.69,187.26-6.17,374.27-.86,561.81-3.26v57.53c-10.36.75-21.07,1.16-31.68,2.37-20.57,2.34-41.26,4.14-61.57,7.94-36.64,6.85-59,32.38-62.44,69.58-.72,7.69-1.26,15.43-1.26,23.15q-.09,409.3.15,818.62c0,13.78,2,27.73,4.62,41.31,4.14,21.76,17.37,37,36.9,47.22,25.86,13.49,53.74,20,82.29,24.27,8.82,1.31,17.69,2.3,26.92,3.48v57.76h-10.36q-244.56-.09-489.12-.22c-121.25-.21-235.21-29.24-340.13-90.3-115.14-67-191.75-165.4-232.34-292.07C743.08,1387.57,740.51,1378.39,738,1370ZM506.3,290.16V303q0,430.6,0,861.22a347.49,347.49,0,0,0,1.89,38.86c5,43.56,26.82,74.06,69.38,88.44,45.47,15.36,92.26,16,139.41,13.3a80.59,80.59,0,0,0,8.08-1.25c-.77-6.87-1.46-13-2.16-19.13-9.2-80.52-7.49-160.64,12.07-239.57C761.7,937,818.53,847.51,902.77,775.45c48.6-41.58,103.7-72.54,162.79-96.55,4.82-2,7.87-3.46,6.65-9.68-16.58-85-47.92-163.47-103.06-231.3-61.91-76.17-141.3-123.33-237.3-142.8-48-9.74-96.56-8.87-145.13-7.61C560.21,288.2,533.7,289.25,506.3,290.16Zm768.5,403.57c7.84,56.58,9.63,110.56,5.55,164.72-3.73,49.54-12.13,98.27-29.51,144.88q-70.1,188.05-246.82,283.95c-24.65,13.33-50.31,24.79-76.12,37.42a3.14,3.14,0,0,0-.14,1.64c1.17,6.38,2.33,12.77,3.7,19.11C953.92,1449.38,999,1541,1080,1612.07c67.94,59.63,147.82,93.32,238.13,98,52.4,2.74,105.09.06,157.64-.29,5.79,0,11.57-.8,18.13-1.29V1698q.06-433.86,0-867.71a262.44,262.44,0,0,0-2.12-37c-5.39-37.66-23.09-66.55-59.71-81.87-27.54-11.52-56.46-16.08-85.85-17.46C1322.85,692.85,1299.4,693.73,1274.8,693.73ZM1082,763.06c-6,4.57-10.7,8-15.17,11.68C1011,821.25,975.35,881.31,952.08,949.06c-31,90.14-37.11,183.64-34.93,278.07.06,2.57.8,5.12,1.37,8.58,2.2-1.52,3.49-2.31,4.66-3.24,5.8-4.62,11.77-9,17.31-14,58-51.55,93.19-117.06,114.82-190.32,24.67-83.57,30-169.48,27.85-256.08C1083.1,769.68,1082.56,767.29,1082,763.06Z"/></svg>